<?xml version="1.0" encoding="utf-8"?>
<!-- Generator: Adobe Illustrator 17.0.0, SVG Export Plug-In . SVG Version: 6.00 Build 0)  -->
<!DOCTYPE svg PUBLIC "-//W3C//DTD SVG 1.1//EN" "http://www.w3.org/Graphics/SVG/1.1/DTD/svg11.dtd">
<svg version="1.1" id="Layer_1" xmlns="http://www.w3.org/2000/svg" xmlns:xlink="http://www.w3.org/1999/xlink" x="0px" y="0px"
	 width="292px" height="140.723px" viewBox="0 0 292 140.723" enable-background="new 0 0 292 140.723" xml:space="preserve">
<g>
	<!-- background shape removed for filter compatibility -->
	<g>
		<path fill="#2E2E2C" d="M31.859,47.02c-0.748,0.079-1.343,0.464-1.784,1.155c-0.443,0.694-0.799,2.209-1.071,4.547l-5.708,41.269
			c-0.204,1.244-0.306,2.208-0.306,2.887c0,1.087,0.153,1.751,0.459,1.99c0.306,0.24,0.73,0.331,1.274,0.274
			c0.611-0.065,1.155-0.427,1.631-1.089c0.474-0.661,0.882-2.165,1.223-4.511l2.344-16.759l10.6-1.114l-2.447,17.585
			c-0.68,4.76-2.328,8.45-4.943,11.068c-2.617,2.62-5.861,4.133-9.734,4.54c-3.466,0.365-6.184-0.233-8.155-1.793
			c-1.972-1.559-2.956-4.174-2.956-7.844c0-0.474,0.016-0.986,0.051-1.534c0.033-0.547,0.084-1.095,0.153-1.646l6.014-43.035
			c0.679-4.76,2.309-8.448,4.893-11.064c2.581-2.615,5.843-4.131,9.785-4.545c3.465-0.364,6.182,0.234,8.154,1.793
			c1.97,1.561,2.956,4.174,2.956,7.844c0,0.476,0,0.985,0,1.529c0,0.545-0.069,1.095-0.204,1.652L41.746,67.08l-10.6,1.114
			l2.14-15.922c0.135-0.626,0.204-1.159,0.204-1.601c0-0.441,0-0.867,0-1.274c0-1.086-0.137-1.77-0.408-2.047
			C32.81,47.073,32.402,46.962,31.859,47.02z"/>
		<path fill="#2E2E2C" d="M62.926,35.192l-9.581,69.604l-10.702,1.126l9.581-69.605L62.926,35.192z"/>
		<path fill="#2E2E2C" d="M67.165,34.746l11.62-1.221l-4.587,45.636l1.325-0.139l8.256-46.021l11.11-1.168l-16.512,70.334
			l-13.965,1.468L67.165,34.746z"/>
		<path fill="#2E2E2C" d="M109.954,30.249l-9.581,69.605l-10.703,1.125l9.581-69.605L109.954,30.249z"/>
		<path fill="#2E2E2C" d="M127.576,28.397l-8.256,59.885l7.849-0.825l-1.325,9.721l-18.653,1.96l9.581-69.605L127.576,28.397z"/>
		<path fill="#2E2E2C" d="M192.911,21.53l-1.427,9.63l-10.294,1.082l-2.446,17.279l8.052-0.846l-1.325,9.924l-8.052,0.846
			l-3.159,23.062l10.498-1.104l-1.427,9.731l-20.997,2.207l9.581-69.604L192.911,21.53z"/>
		<path fill="#2E2E2C" d="M199.066,20.883l21.609-2.271l-5.505,69.176l-10.397,1.093l1.733-21.077l-6.421,0.675l-3.873,21.303
			l-10.702,1.125L199.066,20.883z M201.819,58.817l5.708-0.6l2.548-29.419l-2.65,0.279L201.819,58.817z"/>
		<path fill="#2E2E2C" d="M251.049,15.419l-1.427,9.63l-7.237,0.76l-8.256,59.987l-10.499,1.104l8.257-59.987l-7.543,0.792
			l1.324-9.618L251.049,15.419z"/>
		<path fill="#2E2E2C" d="M256.38,84.374c-3.465,0.364-6.184-0.251-8.155-1.844c-1.972-1.592-2.956-4.225-2.956-7.894
			c0-0.475,0.016-0.986,0.051-1.535c0.033-0.546,0.084-1.095,0.153-1.646l1.937-13.76l10.6-1.114l-1.835,12.934
			c-0.204,1.178-0.305,2.106-0.305,2.784c0,1.156,0.169,1.852,0.509,2.087c0.339,0.237,0.781,0.326,1.325,0.269
			c0.679-0.07,1.29-0.441,1.834-1.109c0.543-0.669,0.985-2.176,1.325-4.523l1.325-9.313c0.067-0.346,0.102-0.638,0.102-0.877
			c0-0.237,0-0.424,0-0.561c0-2.105-0.629-3.739-1.885-4.898c-1.259-1.158-2.65-2.285-4.179-3.383
			c-1.529-1.096-2.923-2.394-4.179-3.893c-1.258-1.499-1.886-3.607-1.886-6.326c0-0.543,0-1.137,0-1.783
			c0-0.645,0.067-1.348,0.204-2.111l1.121-7.355c0.747-4.903,2.327-8.619,4.74-11.15c2.411-2.53,5.657-4.009,9.734-4.438
			c3.466-0.364,6.116,0.224,7.951,1.764c1.834,1.54,2.751,4.145,2.751,7.814c0,0.544-0.018,1.106-0.051,1.686
			c-0.034,0.582-0.086,1.115-0.153,1.596l-1.529,10.965l-10.499,1.103l1.428-10.037c0.203-1.244,0.305-2.308,0.305-3.192
			c0-0.95-0.136-1.547-0.408-1.792c-0.272-0.242-0.679-0.336-1.222-0.279c-0.748,0.078-1.31,0.461-1.682,1.145
			c-0.374,0.686-0.697,2.198-0.968,4.536l-1.02,7.65c-0.067,0.144-0.101,0.334-0.101,0.571c0,0.239,0,0.459,0,0.663
			c0,1.36,0.305,2.465,0.917,3.318c0.611,0.853,1.358,1.608,2.242,2.261c0.882,0.656,1.868,1.266,2.956,1.83
			c1.087,0.566,2.072,1.261,2.956,2.085c0.882,0.825,1.631,1.833,2.242,3.026c0.612,1.193,0.918,2.706,0.918,4.541
			c0,0.749-0.035,1.482-0.103,2.202c-0.068,0.721-0.17,1.462-0.305,2.224l-1.325,10.23c-0.612,4.753-2.226,8.423-4.842,11.008
			C263.803,82.44,260.457,83.945,256.38,84.374z"/>
	</g>
</g>
</svg>
