<svg width="22" height="22" viewBox="0 0 24 24" fill="none" xmlns="http://www.w3.org/2000/svg">
  <path d="M5 4 L5 7 L4 9 L4 19 C4 20 4.5 20.5 5.5 20.5 L6.5 20.5 C7.5 20.5 8 20 8 19 L8 9 L7 7 L7 4 Z" stroke="#7A8C6E" stroke-width="1.3" fill="rgba(196,122,90,0.6)" stroke-linejoin="round" stroke-linecap="round"/>
  <line x1="4" y1="13" x2="8" y2="13" stroke="#FAF7F2" stroke-width="0.9" opacity="0.85"/>
  <path d="M11 3 L11 6 L10 8 L10 19 C10 20 10.5 20.5 11.5 20.5 L12.5 20.5 C13.5 20.5 14 20 14 19 L14 8 L13 6 L13 3 Z" stroke="#7A8C6E" stroke-width="1.3" fill="rgba(212,168,67,0.6)" stroke-linejoin="round" stroke-linecap="round"/>
  <line x1="10" y1="12" x2="14" y2="12" stroke="#FAF7F2" stroke-width="0.9" opacity="0.85"/>
  <path d="M17 4 L17 7 L16 9 L16 19 C16 20 16.5 20.5 17.5 20.5 L18.5 20.5 C19.5 20.5 20 20 20 19 L20 9 L19 7 L19 4 Z" stroke="#7A8C6E" stroke-width="1.3" fill="rgba(94,112,82,0.6)" stroke-linejoin="round" stroke-linecap="round"/>
  <line x1="16" y1="13" x2="20" y2="13" stroke="#FAF7F2" stroke-width="0.9" opacity="0.85"/>
</svg>
