<svg width="22" height="22" viewBox="0 0 24 24" fill="none" xmlns="http://www.w3.org/2000/svg">
  <path d="M4.5 4.2 L4.5 6.2 M3.5 5.2 L5.5 5.2" stroke="#D4A843" stroke-width="1" stroke-linecap="round"/>
  <path d="M20 4.5 L20 6 M19.2 5.2 L20.8 5.2" stroke="#D4A843" stroke-width="1" stroke-linecap="round"/>
  <path d="M3.5 14 L4.6 13 M3.5 13 L4.6 14" stroke="#D4A843" stroke-width="1" stroke-linecap="round"/>
  <path d="M19.5 16 L20.6 15 M19.5 15 L20.6 16" stroke="#D4A843" stroke-width="1" stroke-linecap="round"/>
  <path d="M12 20.2 C12 20.2 5.5 14.8 5.5 9.8 C5.5 7.4 7.3 5.8 9.2 5.8 C10.5 5.8 11.5 6.5 12 7.4 C12.5 6.5 13.5 5.8 14.8 5.8 C16.7 5.8 18.5 7.4 18.5 9.8 C18.5 14.8 12 20.2 12 20.2 Z" stroke="#7A8C6E" stroke-width="1.4" fill="rgba(196,122,90,0.55)" stroke-linejoin="round" stroke-linecap="round"/>
  <path d="M8.5 8.5 Q8 9.5 8.5 10.8" stroke="#FAF7F2" stroke-width="1.1" stroke-linecap="round" fill="none" opacity="0.85"/>
</svg>
