<svg width="22" height="22" viewBox="0 0 24 24" fill="none" xmlns="http://www.w3.org/2000/svg">
  <path d="M12 3 C8.5 3 6 5.5 6 9 C6 11 7 12.5 8 13.5 C9 14.5 9.5 15 9.5 16 L14.5 16 C14.5 15 15 14.5 16 13.5 C17 12.5 18 11 18 9 C18 5.5 15.5 3 12 3 Z" stroke="#7A8C6E" stroke-width="1.4" fill="rgba(212,168,67,0.28)" stroke-linejoin="round"/>
  <line x1="9.5" y1="17.5" x2="14.5" y2="17.5" stroke="#7A8C6E" stroke-width="1.2" stroke-linecap="round"/>
  <line x1="10" y1="19.2" x2="14" y2="19.2" stroke="#7A8C6E" stroke-width="1.2" stroke-linecap="round"/>
  <line x1="11" y1="20.8" x2="13" y2="20.8" stroke="#7A8C6E" stroke-width="1.2" stroke-linecap="round"/>
  <path d="M10 9 L12 11 L14 9" stroke="#D4A843" stroke-width="1.1" stroke-linecap="round" stroke-linejoin="round" fill="none" opacity="0.85"/>
</svg>
