<svg width="22" height="22" viewBox="0 0 24 24" fill="none" xmlns="http://www.w3.org/2000/svg">
  <path d="M2 9 Q3.5 9 5 9" stroke="#D4A843" stroke-width="1.1" stroke-linecap="round" opacity="0.75"/>
  <path d="M1.5 12 Q4 12 6 12" stroke="#D4A843" stroke-width="1.1" stroke-linecap="round" opacity="0.75"/>
  <path d="M2.5 15 Q4 15 5.5 15" stroke="#D4A843" stroke-width="1.1" stroke-linecap="round" opacity="0.75"/>
  <circle cx="16" cy="4.8" r="2" stroke="#7A8C6E" stroke-width="1.3" fill="rgba(196,122,90,0.32)"/>
  <path d="M14 4.3 L18 4.3" stroke="#D4A843" stroke-width="1" stroke-linecap="round"/>
  <path d="M16 6.8 L13.5 12 L17.2 12.5 L17.4 7.3 Z" stroke="#7A8C6E" stroke-width="1.3" fill="rgba(168,184,157,0.22)" stroke-linejoin="round"/>
  <path d="M16.8 7.8 L20 6.8 L21.5 9.3" stroke="#7A8C6E" stroke-width="1.3" stroke-linecap="round" stroke-linejoin="round"/>
  <path d="M14 8.8 L11 9.6 L11.5 12" stroke="#7A8C6E" stroke-width="1.3" stroke-linecap="round" stroke-linejoin="round"/>
  <path d="M13.5 12 L17.2 12.5 L17 14 L13 14 Z" stroke="#7A8C6E" stroke-width="1.2" fill="rgba(212,168,67,0.32)" stroke-linejoin="round"/>
  <path d="M15.5 14 L18.6 17 L17.5 21" stroke="#7A8C6E" stroke-width="1.3" stroke-linecap="round" stroke-linejoin="round"/>
  <path d="M14 14 L11 17.5 L8 19.5" stroke="#7A8C6E" stroke-width="1.3" stroke-linecap="round" stroke-linejoin="round"/>
  <path d="M16 21.3 L19 21.3 L19 22 L16 22 Z" stroke="#C47A5A" stroke-width="0.9" fill="rgba(196,122,90,0.6)" stroke-linejoin="round"/>
  <path d="M7 19.7 L10 19.7 L10 20.5 L7 20.5 Z" stroke="#C47A5A" stroke-width="0.9" fill="rgba(196,122,90,0.6)" stroke-linejoin="round"/>
</svg>
