<svg width="22" height="22" viewBox="0 0 24 24" fill="none" xmlns="http://www.w3.org/2000/svg">
  <path d="M12 2.5 C6.8 2.5 3 6 3 10.7 C3 14.4 5.7 17 8.8 17 C10.4 17 11 16.2 11 15.1 C11 14 11.7 13.3 13 13.3 C16.7 13.3 21 10.7 21 7.5 C21 4.5 16.8 2.5 12 2.5 Z"
    stroke="#7A8C6E" stroke-width="1.4" fill="rgba(168,184,157,0.14)" stroke-linejoin="round"/>
  <ellipse cx="6.5" cy="11" rx="1.5" ry="1.9" stroke="#7A8C6E" stroke-width="1.1" fill="rgba(250,247,242,0.6)"/>
  <circle cx="9.8" cy="6.2" r="1.35" fill="rgba(196,122,90,0.7)" stroke="#C47A5A" stroke-width="0.7"/>
  <circle cx="14" cy="5.5" r="1.35" fill="rgba(212,168,67,0.7)" stroke="#D4A843" stroke-width="0.7"/>
  <circle cx="17.6" cy="7.4" r="1.35" fill="rgba(168,184,157,0.7)" stroke="#7A8C6E" stroke-width="0.7"/>
  <circle cx="16.2" cy="11" r="1.35" fill="rgba(139,109,71,0.55)" stroke="#8B6D47" stroke-width="0.7"/>
  <line x1="14" y1="22" x2="19.5" y2="16.5" stroke="#7A8C6E" stroke-width="1.3" stroke-linecap="round"/>
  <line x1="13" y1="22.5" x2="14.7" y2="20.8" stroke="#D4A843" stroke-width="1.5" stroke-linecap="round"/>
  <path d="M11 23 L13 21 L13.9 21.8 L11.9 23.8 Z" stroke="#C47A5A" stroke-width="0.9" fill="rgba(196,122,90,0.55)" stroke-linejoin="round"/>
</svg>
